<?xml version="1.0" encoding="UTF-8"?>
<svg id="Layer_1" data-name="Layer 1" xmlns="http://www.w3.org/2000/svg" version="1.1" viewBox="0 0 31 31">
  <defs>
    <style>
      .cls-1 {
        fill: #eb5757;
      }

      .cls-1, .cls-2 {
        stroke-width: 0px;
      }

      .cls-2 {
        fill: #fff;
      }
    </style>
  </defs>
  <rect class="cls-1" width="31" height="31"/>
  <g>
    <path class="cls-2" d="M16.9,18.6c0,.3,0,.7,0,1,0,.7-.5,1.2-1.1,1.4-.6.2-1.3,0-1.7-.6-.2-.3-.3-.6-.3-1,0-.6,0-1.3,0-1.9,0-.2,0-.3-.3-.3-.6,0-1.3,0-1.9,0-.9,0-1.6-.8-1.4-1.7.1-.7.5-1.3,1.5-1.3.6,0,1.2,0,1.8,0,.2,0,.3,0,.3-.3,0-.7,0-1.4,0-2.1,0-.9.5-1.4,1.3-1.5.8-.2,1.7.4,1.8,1.3,0,.7,0,1.4,0,2.1,0,.5,0,.4.4.4.5,0,1.1,0,1.6,0,.6,0,1.1.2,1.3.8.3.6.3,1.1,0,1.6-.3.4-.8.6-1.3.6-.6,0-1.2,0-1.8,0-.2,0-.2,0-.2.2,0,.3,0,.7,0,1h0Z"/>
    <path class="cls-2" d="M12.3,9.5c0,1,0,2.1,0,3.1,0,.2,0,.3-.3.3-2,0-4.1,0-6.1,0-.2,0-.2,0-.2-.2,0-1.7,0-3.3,0-5,0-1,.7-1.6,1.6-1.6,1.5,0,3,0,4.6,0,.4,0,.4,0,.4.4,0,1,0,2,0,3h0ZM10.9,9.5h0c0-.6,0-1.2,0-1.8,0-.2,0-.3-.3-.3-1.1,0-2.2,0-3.4,0-.2,0-.3,0-.3.3,0,1.2,0,2.4,0,3.6,0,.2,0,.3.3.3,1.1,0,2.2,0,3.4,0,.2,0,.3,0,.3-.3,0-.6,0-1.2,0-1.8h0Z"/>
    <path class="cls-2" d="M12.3,22v3.1c0,.3,0,.3-.3.3-1.5,0-3.1,0-4.6,0-1.1,0-1.7-.6-1.7-1.7,0-1.6,0-3.2,0-4.8,0-.2,0-.3.3-.3,2,0,4.1,0,6.1,0,.2,0,.3,0,.3.3,0,1,0,2.1,0,3.1h0ZM7,22h0c0,.6,0,1.2,0,1.8,0,.2,0,.2.2.2,1.2,0,2.3,0,3.5,0,.2,0,.2,0,.2-.2,0-1.2,0-2.4,0-3.6,0-.2,0-.2-.2-.2-1.1,0-2.3,0-3.4,0-.2,0-.2,0-.2.2,0,.6,0,1.2,0,1.8h0Z"/>
    <path class="cls-2" d="M21.8,12.9c-1,0-2,0-3,0-.4,0-.4,0-.4-.4,0-2,0-4.1,0-6.1,0-.3,0-.4.4-.4,1.5,0,3,0,4.6,0,.4,0,.8.1,1.2.4.4.3.6.7.6,1.2,0,1.6,0,3.3,0,4.9,0,.2,0,.3-.3.3-1,0-2,0-3,0h0ZM19.8,9.5h0c0,.6,0,1.3,0,1.9,0,.2,0,.2.2.2,1.2,0,2.3,0,3.5,0,.2,0,.3,0,.3-.3,0-1.2,0-2.4,0-3.7,0-.2,0-.3-.3-.3-1.2,0-2.3,0-3.5,0-.2,0-.2,0-.2.2,0,.6,0,1.2,0,1.8h0Z"/>
    <path class="cls-2" d="M14.2,24.6c0,.4-.3.7-.7.7-.4,0-.7-.3-.6-.7,0-.4.3-.7.7-.7.4,0,.7.4.7.8h0Z"/>
    <path class="cls-2" d="M18.3,22.9c0-.4.3-.7.7-.7.4,0,.7.3.7.7,0,.4-.3.7-.7.7-.4,0-.7-.3-.7-.7h0Z"/>
    <path class="cls-2" d="M18.3,20.5c0-.4.3-.7.7-.7.4,0,.7.3.7.7,0,.4-.3.7-.7.7-.4,0-.7-.3-.7-.7h0Z"/>
    <path class="cls-2" d="M14.2,21.9c0,.4-.3.7-.7.7-.4,0-.7-.3-.7-.7,0-.4.3-.7.7-.7.4,0,.7.3.7.7Z"/>
    <path class="cls-2" d="M16,8.4c0,.4-.3.7-.7.7-.4,0-.6-.3-.6-.7,0-.4.3-.7.7-.7.4,0,.7.3.7.8h0Z"/>
    <path class="cls-2" d="M14.7,22.9c0-.4.3-.7.7-.7.4,0,.7.3.7.7,0,.4-.3.7-.7.7-.4,0-.7-.3-.7-.7h0Z"/>
    <path class="cls-2" d="M22.7,19.8c.4,0,.7.3.7.7,0,.4-.3.7-.7.7-.4,0-.7-.3-.7-.7,0-.4.3-.7.7-.7h0Z"/>
    <path class="cls-2" d="M17.9,6.9c0,.4-.3.7-.7.7-.4,0-.7-.4-.7-.8,0-.4.3-.7.7-.7.4,0,.7.3.7.7h0Z"/>
    <path class="cls-2" d="M14.2,7c0,.4-.3.7-.7.7-.4,0-.6-.4-.6-.8,0-.4.3-.7.7-.7.4,0,.7.3.6.7Z"/>
    <path class="cls-2" d="M17.2,23.9c.4,0,.7.3.7.7,0,.4-.3.7-.7.7-.4,0-.7-.3-.7-.7,0-.4.3-.7.7-.7Z"/>
    <path class="cls-2" d="M22.8,23.9c.4,0,.7.3.7.7,0,.4-.3.7-.7.7-.4,0-.7-.3-.7-.7,0-.4.3-.7.7-.7Z"/>
    <path class="cls-2" d="M24.6,23.9c.4,0,.7.3.7.7,0,.4-.3.7-.7.7-.4,0-.7-.3-.7-.7,0-.4.3-.7.7-.7Z"/>
    <path class="cls-2" d="M20.9,23.9c.4,0,.7.3.7.7,0,.4-.3.7-.7.7-.4,0-.7-.3-.7-.7,0-.4.3-.7.7-.7Z"/>
    <path class="cls-2" d="M17.2,22.6c-.4,0-.7-.3-.7-.7,0-.4.3-.7.7-.7.4,0,.7.3.7.7,0,.4-.3.7-.7.7Z"/>
    <path class="cls-2" d="M20.9,22.6c-.4,0-.7-.3-.7-.7,0-.4.3-.7.7-.7.4,0,.7.3.7.7,0,.4-.3.7-.7.7Z"/>
    <path class="cls-2" d="M24.6,22.7c-.4,0-.7-.3-.7-.7,0-.4.3-.7.7-.7.4,0,.7.3.7.7,0,.4-.3.7-.7.7Z"/>
    <path class="cls-2" d="M24.6,20.1c-.4,0-.7-.3-.7-.7,0-.4.3-.7.7-.7.4,0,.7.3.7.7,0,.4-.3.7-.7.7Z"/>
    <path class="cls-2" d="M7,14.1c0,.4-.3.7-.7.7-.4,0-.7-.3-.7-.7s.2-.7.7-.7c.4,0,.7.3.7.7Z"/>
    <path class="cls-2" d="M9.1,13.4c.4,0,.7.3.7.8,0,.4-.3.7-.6.7-.4,0-.7-.3-.7-.7,0-.4.3-.7.7-.7Z"/>
    <path class="cls-2" d="M5.6,16.8c0-.4.3-.7.7-.7.4,0,.7.3.7.7,0,.4-.3.7-.7.7-.4,0-.6-.3-.6-.7Z"/>
    <path class="cls-2" d="M7.3,15.5c0-.4.3-.7.7-.7.4,0,.7.3.7.7,0,.4-.3.7-.7.7-.4,0-.6-.3-.6-.8Z"/>
    <path class="cls-2" d="M23.9,14.1c0,.4.3.7.7.7.4,0,.7-.3.7-.7s-.2-.7-.7-.7c-.4,0-.7.3-.7.7Z"/>
    <path class="cls-2" d="M21.3,13.4c-.4,0-.7.3-.7.8,0,.4.3.7.6.7.4,0,.7-.3.7-.7,0-.4-.3-.7-.7-.7Z"/>
    <path class="cls-2" d="M25.3,16.7c0-.4-.3-.7-.7-.7-.4,0-.7.3-.7.7,0,.4.3.7.7.7.4,0,.6-.3.6-.7Z"/>
    <path class="cls-2" d="M23.4,15.5c0-.4-.3-.7-.7-.7-.4,0-.7.3-.7.7,0,.4.3.7.7.7.4,0,.6-.3.6-.8Z"/>
    <path class="cls-2" d="M17.9,9.6c0,.4-.3.7-.7.7-.4,0-.6-.3-.6-.7,0-.4.3-.7.7-.7.4,0,.7.3.7.7h0Z"/>
    <path class="cls-2" d="M14.2,9.6c0,.4-.3.7-.7.7s-.7-.3-.7-.7c0-.4.3-.7.7-.7.4,0,.7.4.7.8h0Z"/>
    <path class="cls-2" d="M10,9.5c0,.3,0,.5,0,.8,0,.1,0,.2-.2.2-.5,0-1,0-1.5,0-.1,0-.2,0-.2-.2,0-.5,0-1.1,0-1.6,0-.1,0-.2.2-.2.5,0,1,0,1.5,0,.1,0,.2,0,.2.2,0,.3,0,.5,0,.8h0,0Z"/>
    <path class="cls-2" d="M8.1,22c0-.2,0-.5,0-.7,0-.1,0-.2.2-.2.5,0,1,0,1.5,0,0,0,.2.1.2.2,0,.5,0,1,0,1.6,0,0-.1.2-.2.2-.5,0-1,0-1.5,0-.1,0-.2,0-.2-.2,0-.3,0-.5,0-.8h0Z"/>
    <path class="cls-2" d="M22.7,9.5c0,.3,0,.5,0,.8,0,.1,0,.2-.2.2-.5,0-1,0-1.5,0-.2,0-.2,0-.2-.2,0-.5,0-1,0-1.5,0-.2,0-.2.2-.2.5,0,1,0,1.5,0,.2,0,.2,0,.2.2,0,.3,0,.5,0,.8h0Z"/>
  </g>
</svg>