<?xml version="1.0" encoding="UTF-8"?>
<svg id="Layer_1" data-name="Layer 1" xmlns="http://www.w3.org/2000/svg" version="1.1" viewBox="0 0 480 480">
  <defs>
    <style>
      .cls-1 {
        letter-spacing: 0em;
      }

      .cls-1, .cls-2, .cls-3, .cls-4 {
        fill: #bddae5;
        font-family: FiraSans-ExtraBold, 'Fira Sans';
        font-size: 33.6px;
        font-weight: 700;
      }

      .cls-1, .cls-2, .cls-3, .cls-4, .cls-5 {
        isolation: isolate;
      }

      .cls-6 {
        fill: #000;
      }

      .cls-6, .cls-7 {
        stroke-width: 0px;
      }

      .cls-2 {
        letter-spacing: 0em;
      }

      .cls-3 {
        letter-spacing: 0em;
      }

      .cls-7 {
        fill: #6dd7ff;
      }

      .cls-4 {
        letter-spacing: 0em;
      }
    </style>
  </defs>
  <rect class="cls-6" width="480" height="480"/>
  <g>
    <path class="cls-7" d="M409.9,136.3l-38.1,70.6,42.3,88.4h-50.5l-29.7-66.4h-11.2v66.4h-42.5v-66.4h-11.7l-30.2,66.4h-58.5l10.1-2.4,41.1-86-38.1-70.6h45.2l31.7,60.8h10.3v-60.8h42.5v60.8h10.3l32.2-60.8h44.8Z"/>
    <path class="cls-6" d="M221.1,276.3c3.9-5.1,7.8-14.6,10.5-22.1l-20.8-5.7c-.8.8-1.6,3.2-2,4.9-2,4.2,1.6,10.1.3,13.1l-8.5-7.9c-5.1,2.6-9.4,6.5-12.4,11.4l9.8,9.3c-3.9,1.9-10.1,2.7-14,.9-1.3,5-12.8,11.3-3.6,16l37.4,1.4,18.6-7.3-15.2-13.9Z"/>
    <path class="cls-7" d="M201.5,226.2c4.4,6,3.4,14.4-.5,19.9-2.3,3.1-5.6,6.3-10.1,9.5l11.7,10.9c1.6-3.5,3.5-7.7,6.1-13.1l15.1,4.5c-2.3,6.8-5.6,13.2-9.8,19l13.3,11.4-18.6,7.3-7.1-6.8c-18,12.4-50.7,8-50.7-14.3s5.7-14.9,14.1-20.4c-4-3.9-6.6-7.1-8-9.6-6.1-11.1.5-26.8,22.7-26.8,8,0,17.1,2.1,21.8,8.5ZM175.5,279c3.9,3.3,11.5,2.4,16,.3l-14.7-13.9c-4.9,4.1-4.8,10.7-1.3,13.7h0ZM174.9,236.1c0,3.7,1.8,5.7,4.7,8.6,1.6-1.1,2.9-2.5,3.9-4.2,1.2-2.3,1.8-6.4,0-8.5-2.1-2.3-8.5-2-8.5,4.1h0Z"/>
    <polygon class="cls-7" points="192.6 136.3 187.8 171.5 151.7 171.5 151.7 295.3 104.6 295.3 104.6 171.5 68.3 171.5 66 136.3 192.6 136.3"/>
    <g class="cls-5">
      <text class="cls-2" transform="translate(77.3 351.8)"><tspan x="0" y="0">Т</tspan></text>
      <text class="cls-3" transform="translate(94.8 351.8)"><tspan x="0" y="0">е</tspan></text>
      <text class="cls-4" transform="translate(113.7 351.8)"><tspan x="0" y="0">хн</tspan></text>
      <text class="cls-1" transform="translate(152.3 351.8)"><tspan x="0" y="0">о</tspan></text>
      <text class="cls-4" transform="translate(172.3 351.8)"><tspan x="0" y="0">логии и жизнь</tspan></text>
    </g>
  </g>
</svg>